<svg xmlns="http://www.w3.org/2000/svg" viewBox="-64 -64 128 128" role="img" aria-label="Bateria de Tempestade"><title>Bateria de Tempestade</title><defs><linearGradient id="metal" x1="0" y1="0" x2=".8" y2="1"><stop stop-color="#ffe277"/><stop offset=".5" stop-color="#393057"/><stop offset="1" stop-color="#171126"/></linearGradient><radialGradient id="halo"><stop stop-color="#ffe277" stop-opacity=".25"/><stop offset="1" stop-color="#ffe277" stop-opacity="0"/></radialGradient></defs><circle r="63" fill="url(#halo)"/><g fill="url(#metal)" stroke="#ffe277" stroke-width="2.5" stroke-linejoin="round" stroke-linecap="round"><path d="M-40-28-51-5-37 9M40-28 51-5 37 9M-23 34-13 48 0 39 13 48 23 34" fill="url(#metal)"/><path d="M-29-25H29L38 28 21 39-21 39-38 28Z"/><rect x="-15" y="-47" width="30" height="48" rx="5"/><ellipse cy="-43" rx="10" ry="5" fill="#171024"/><g transform="translate(0 22) rotate(135)" fill="#ffe277" stroke="#f9e9ca" stroke-width="1"><path d="M0-7 6 0 0 7-6 0Z"/></g></g><path d="M-20 5 -6 8 -8 14 -20 12ZM20 5 6 8 8 14 20 12Z" fill="#f6f4ff" stroke="none"/></svg>