<svg xmlns="http://www.w3.org/2000/svg" viewBox="-64 -64 128 128" role="img" aria-label="Olho Onisciente"><title>Olho Onisciente</title><defs><linearGradient id="metal" x1="0" y1="0" x2=".8" y2="1"><stop stop-color="#ce97ff"/><stop offset=".5" stop-color="#393057"/><stop offset="1" stop-color="#171126"/></linearGradient><radialGradient id="halo"><stop stop-color="#ce97ff" stop-opacity=".25"/><stop offset="1" stop-color="#ce97ff" stop-opacity="0"/></radialGradient></defs><circle r="63" fill="url(#halo)"/><g fill="url(#metal)" stroke="#ce97ff" stroke-width="2.5" stroke-linejoin="round" stroke-linecap="round"><path d="M-24-30-50-47-42-14-55 12-33 8M24-30 50-47 42-14 55 12 33 8M-22 31-32 50 0 39 32 50 22 31" fill="url(#metal)"/><path d="M-47 0Q0-50 47 0Q0 48-47 0Z"/><circle cx="0" cy="0" r="24"/><g transform="translate(0 22) rotate(90)" fill="#ce97ff" stroke="#f9e9ca" stroke-width="1"><path d="M0-7 6 0 0 7-6 0Z"/><circle r="11" fill="none"/></g></g><circle cy="-6" r="9" fill="#f6f4ff"/><ellipse cy="-6" rx="3" ry="8" fill="#20102d"/></svg>