<svg xmlns="http://www.w3.org/2000/svg" viewBox="-64 -64 128 128" role="img" aria-label="FERROX, O FERREIRO"><title>FERROX, O FERREIRO</title><defs><linearGradient id="metal" x1="0" y1="0" x2=".8" y2="1"><stop stop-color="#ff9b69"/><stop offset=".5" stop-color="#393057"/><stop offset="1" stop-color="#171126"/></linearGradient><radialGradient id="halo"><stop stop-color="#ff9b69" stop-opacity=".25"/><stop offset="1" stop-color="#ff9b69" stop-opacity="0"/></radialGradient></defs><circle r="63" fill="url(#halo)"/><circle r="56" fill="none" stroke="#ff9b69" stroke-opacity=".4" stroke-dasharray="9 9"/><g stroke-width="1.5"><path d="M0-58-4-51 4-51Z" transform="rotate(0)" fill="#ff9b69"/><path d="M0-58-4-51 4-51Z" transform="rotate(51.42857142857143)" fill="#ff9b69"/><path d="M0-58-4-51 4-51Z" transform="rotate(102.85714285714286)" fill="#ff9b69"/><path d="M0-58-4-51 4-51Z" transform="rotate(154.28571428571428)" fill="#ff9b69"/><path d="M0-58-4-51 4-51Z" transform="rotate(205.71428571428572)" fill="#ff9b69"/><path d="M0-58-4-51 4-51Z" transform="rotate(257.14285714285717)" fill="#ff9b69"/><path d="M0-58-4-51 4-51Z" transform="rotate(308.57142857142856)" fill="#ff9b69"/></g><g fill="url(#metal)" stroke="#ff9b69" stroke-width="2.5" stroke-linejoin="round" stroke-linecap="round"><path d="M-40-28-51-5-37 9M40-28 51-5 37 9M-23 34-13 48 0 39 13 48 23 34" fill="url(#metal)"/><path d="M-39-30H39V-3L17 5 10 43H-10L-17 5-39-3Z"/><path d="M-25-22H25M-8 8H8M-8 23H8" fill="none"/><g transform="translate(0 22) rotate(45)" fill="#ff9b69" stroke="#f9e9ca" stroke-width="1"><path d="M0-7 6 0 0 7-6 0Z"/></g></g><path d="M-20 5 -6 8 -8 14 -20 12ZM20 5 6 8 8 14 20 12Z" fill="#f6f4ff" stroke="none"/></svg>