<svg xmlns="http://www.w3.org/2000/svg" viewBox="-64 -64 128 128" role="img" aria-label="NÁJARA, A SERPENTE"><title>NÁJARA, A SERPENTE</title><defs><linearGradient id="metal" x1="0" y1="0" x2=".8" y2="1"><stop stop-color="#86d8c6"/><stop offset=".5" stop-color="#393057"/><stop offset="1" stop-color="#171126"/></linearGradient><radialGradient id="halo"><stop stop-color="#86d8c6" stop-opacity=".25"/><stop offset="1" stop-color="#86d8c6" stop-opacity="0"/></radialGradient></defs><circle r="63" fill="url(#halo)"/><circle r="56" fill="none" stroke="#86d8c6" stroke-opacity=".4" stroke-dasharray="11 9"/><g stroke-width="1.5"><path d="M0-58-4-51 4-51Z" transform="rotate(0)" fill="#86d8c6"/><path d="M0-58-4-51 4-51Z" transform="rotate(90)" fill="#86d8c6"/><path d="M0-58-4-51 4-51Z" transform="rotate(180)" fill="#86d8c6"/><path d="M0-58-4-51 4-51Z" transform="rotate(270)" fill="#86d8c6"/></g><g fill="url(#metal)" stroke="#86d8c6" stroke-width="2.5" stroke-linejoin="round" stroke-linecap="round"><path d="M-40-28-51-5-37 9M40-28 51-5 37 9M-23 34-13 48 0 39 13 48 23 34" fill="url(#metal)"/><path d="M-39 22C-49-27-3-47 22-28S46 22 15 30S-16 10-6 0C-37 7-12 51-39 22Z"/><g transform="translate(0 22) rotate(135)" fill="#86d8c6" stroke="#f9e9ca" stroke-width="1"><path d="M0-7 6 0 0 7-6 0Z"/></g></g><path d="M-20 -9 -6 -6 -8 0 -20 -2ZM20 -9 6 -6 8 0 20 -2Z" fill="#f6f4ff" stroke="none"/></svg>