<svg xmlns="http://www.w3.org/2000/svg" viewBox="-64 -64 128 128" role="img" aria-label="IRIDIS, O PRISMA"><title>IRIDIS, O PRISMA</title><defs><linearGradient id="metal" x1="0" y1="0" x2=".8" y2="1"><stop stop-color="#00ffff"/><stop offset=".5" stop-color="#393057"/><stop offset="1" stop-color="#171126"/></linearGradient><radialGradient id="halo"><stop stop-color="#00ffff" stop-opacity=".25"/><stop offset="1" stop-color="#00ffff" stop-opacity="0"/></radialGradient></defs><circle r="63" fill="url(#halo)"/><circle r="56" fill="none" stroke="#00ffff" stroke-opacity=".4" stroke-dasharray="8 9"/><g stroke-width="1.5"><path d="M0-58-4-51 4-51Z" transform="rotate(0)" fill="#00ffff"/><path d="M0-58-4-51 4-51Z" transform="rotate(60)" fill="#00ffff"/><path d="M0-58-4-51 4-51Z" transform="rotate(120)" fill="#00ffff"/><path d="M0-58-4-51 4-51Z" transform="rotate(180)" fill="#00ffff"/><path d="M0-58-4-51 4-51Z" transform="rotate(240)" fill="#00ffff"/><path d="M0-58-4-51 4-51Z" transform="rotate(300)" fill="#00ffff"/></g><g fill="url(#metal)" stroke="#00ffff" stroke-width="2.5" stroke-linejoin="round" stroke-linecap="round"><path d="M-40-28-51-5-37 9M40-28 51-5 37 9M-23 34-13 48 0 39 13 48 23 34" fill="url(#metal)"/><path d="M0-49 26-21 20 29 0 48-20 29-26-21Z"/><path d="M-31-26-47-9-37 24-22 8ZM31-26 47-9 37 24 22 8Z"/><path d="M0-35V33M-20-16 0 0 20-16" fill="none"/><g transform="translate(0 22) rotate(0)" fill="#00ffff" stroke="#f9e9ca" stroke-width="1"><path d="M0-7 6 0 0 7-6 0Z"/></g></g><path d="M-20 -9 -6 -6 -8 0 -20 -2ZM20 -9 6 -6 8 0 20 -2Z" fill="#f6f4ff" stroke="none"/></svg>