<svg xmlns="http://www.w3.org/2000/svg" viewBox="-64 -64 128 128" role="img" aria-label="ABISSA, A MARÉ"><title>ABISSA, A MARÉ</title><defs><linearGradient id="metal" x1="0" y1="0" x2=".8" y2="1"><stop stop-color="#70cfe7"/><stop offset=".5" stop-color="#393057"/><stop offset="1" stop-color="#171126"/></linearGradient><radialGradient id="halo"><stop stop-color="#70cfe7" stop-opacity=".25"/><stop offset="1" stop-color="#70cfe7" stop-opacity="0"/></radialGradient></defs><circle r="63" fill="url(#halo)"/><circle r="56" fill="none" stroke="#70cfe7" stroke-opacity=".4" stroke-dasharray="12 9"/><g stroke-width="1.5"><path d="M0-58-4-51 4-51Z" transform="rotate(0)" fill="#70cfe7"/><path d="M0-58-4-51 4-51Z" transform="rotate(72)" fill="#70cfe7"/><path d="M0-58-4-51 4-51Z" transform="rotate(144)" fill="#70cfe7"/><path d="M0-58-4-51 4-51Z" transform="rotate(216)" fill="#70cfe7"/><path d="M0-58-4-51 4-51Z" transform="rotate(288)" fill="#70cfe7"/></g><g fill="url(#metal)" stroke="#70cfe7" stroke-width="2.5" stroke-linejoin="round" stroke-linecap="round"><path d="M-40-28-51-5-37 9M40-28 51-5 37 9M-23 34-13 48 0 39 13 48 23 34" fill="url(#metal)"/><circle cx="0" cy="-31" r="12"/><path d="M0-19V40M-25-10H25M-43 7Q-41 42 0 40Q41 42 43 7L29 17M-43 7-29 17" fill="none" stroke-width="8"/><g transform="translate(0 22) rotate(0)" fill="#70cfe7" stroke="#f9e9ca" stroke-width="1"><path d="M0-7 6 0 0 7-6 0Z"/></g></g><path d="M-20 -9 -6 -6 -8 0 -20 -2ZM20 -9 6 -6 8 0 20 -2Z" fill="#f6f4ff" stroke="none"/></svg>